<svg xmlns="http://www.w3.org/2000/svg" viewBox="0 0 512 512" role="img" aria-label="きずなクリッカー">
  <defs>
    <linearGradient id="kz-bg" x1="0" y1="0" x2="0" y2="1">
      <stop offset="0" stop-color="#ff9ebf"/>
      <stop offset="1" stop-color="#ff5d8f"/>
    </linearGradient>
  </defs>
  <rect width="512" height="512" rx="112" fill="url(#kz-bg)"/>
  <!-- face -->
  <circle cx="226" cy="300" r="120" fill="#fff3e9"/>
  <circle cx="226" cy="300" r="120" fill="none" stroke="#000" stroke-opacity="0.06" stroke-width="6"/>
  <circle cx="194" cy="288" r="15" fill="#3a2e36"/>
  <circle cx="258" cy="288" r="15" fill="#3a2e36"/>
  <path d="M186 330 Q226 372 266 330" fill="none" stroke="#3a2e36" stroke-width="14" stroke-linecap="round"/>
  <!-- heart -->
  <path d="M356 188 C338 160 296 166 296 202 C296 232 330 252 356 270 C382 252 416 232 416 202 C416 166 374 160 356 188 Z" fill="#ffffff"/>
  <path d="M356 188 C338 160 296 166 296 202 C296 232 330 252 356 270 C382 252 416 232 416 202 C416 166 374 160 356 188 Z" fill="none" stroke="#ff3d77" stroke-width="6" stroke-opacity="0.25"/>
</svg>
